<svg width="1280" height="720" xmlns="http://www.w3.org/2000/svg" xmlns:xlink="http://www.w3.org/1999/xlink" overflow="hidden"><g><rect x="0" y="0" width="1280" height="720" fill="#FFFFFF"/><path d="M149 336.5 265.5 279 382 336.5 265.5 394Z" stroke="#042433" stroke-width="2" stroke-miterlimit="8" fill="none" fill-rule="evenodd"/><text font-family="Aptos,Aptos_MSFontService,sans-serif" font-weight="400" font-size="24" transform="translate(219.991 330)">EEPROM</text><text font-family="Aptos,Aptos_MSFontService,sans-serif" font-weight="400" font-size="24" transform="translate(220.004 359)">present?</text><path d="M808 590 952 542 1096 590 952 638Z" stroke="#042433" stroke-width="2" stroke-miterlimit="8" fill="none" fill-rule="evenodd"/><text font-family="Aptos,Aptos_MSFontService,sans-serif" font-weight="400" font-size="24" transform="translate(892.122 583)">checksums</text><text font-family="Aptos,Aptos_MSFontService,sans-serif" font-weight="400" font-size="24" transform="translate(912.629 612)">match?</text><path d="M194.624 76 336.376 76C354.946 76 370 95.2518 370 119 370 142.748 354.946 162 336.376 162L194.624 162C176.054 162 161 142.748 161 119 161 95.2518 176.054 76 194.624 76Z" stroke="#042433" stroke-width="2" stroke-miterlimit="8" fill="#B4E5A2" fill-rule="evenodd"/><text font-family="Aptos,Aptos_MSFontService,sans-serif" font-style="italic" font-weight="400" font-size="24" transform="translate(185.821 112)">coil_connected</text><text font-family="Aptos,Aptos_MSFontService,sans-serif" font-weight="400" font-size="24" transform="translate(196.221 141)">line activated</text><path d="M84 648 141.2 533 370 533 312.8 648Z" stroke="#042433" stroke-width="2" stroke-miterlimit="8" fill="#FF8181" fill-rule="evenodd"/><text font-family="Aptos,Aptos_MSFontService,sans-serif" font-weight="400" font-size="24" transform="translate(150.255 569)">decoded fields</text><text font-family="Aptos,Aptos_MSFontService,sans-serif" font-weight="400" font-size="24" transform="translate(167.369 598)">available to</text><text font-family="Aptos,Aptos_MSFontService,sans-serif" font-weight="400" font-size="24" transform="translate(142.689 627)">scan control SW</text><rect x="173" y="197" width="185" height="50" stroke="#042433" stroke-width="2" stroke-miterlimit="8" fill="#C1E5F5"/><text font-family="Aptos,Aptos_MSFontService,sans-serif" font-weight="400" font-size="24" transform="translate(198.581 229)">scan I2C bus</text><path d="M267 162 267 190.096 265 190.096 265 162ZM272.667 188.763 266 196.763 259.333 188.763Z"/><path d="M267 247 267 272.453 265 272.453 265 247ZM272.667 271.12 266 279.12 259.333 271.12Z"/><path d="M0-1 76.7908-1 76.7908 35.212 74.7908 35.212 74.7908 0 75.7908 1 0 1ZM82.4574 33.8786 75.7908 41.8786 69.1241 33.8786Z" transform="matrix(-1 1.22465e-16 1.22465e-16 1 148.791 336)"/><rect x="606" y="132" width="121" height="86" stroke="#042433" stroke-width="2" stroke-miterlimit="8" fill="#C1E5F5"/><text font-family="Aptos,Aptos_MSFontService,sans-serif" font-weight="400" font-size="24" transform="translate(628.154 168)">read 1</text><text font-family="Aptos,Aptos_MSFontService,sans-serif" font-weight="400" font-size="16" transform="translate(692.494 161)">st</text><text font-family="Aptos,Aptos_MSFontService,sans-serif" font-weight="400" font-size="24" transform="translate(629.874 197)">4 bytes</text><path d="M550 337 596.6 275 783 275 736.4 337Z" stroke="#042433" stroke-width="2" stroke-miterlimit="8" fill="none" fill-rule="evenodd"/><text font-family="Aptos,Aptos_MSFontService,sans-serif" font-style="italic" font-weight="400" font-size="24" transform="translate(597.346 314)">BSON_length</text><path d="M0.999972-0.00750642 1.38143 50.808-0.618518 50.823-0.999972 0.00750642ZM7.03792 49.4322 0.431496 57.482-6.29503 49.5323Z" transform="matrix(-1 0 0 1 666.432 218)"/><path d="M0-1 113.1-1 113.1 161.532 112.1 160.532 217.533 160.532 217.533 162.532 111.1 162.532 111.1 0 112.1 1 0 1ZM216.2 154.866 224.2 161.532 216.2 168.199Z" transform="matrix(1 0 0 -1 382 336.532)"/><rect x="881" y="218" width="221" height="89" stroke="#042433" stroke-width="2" stroke-miterlimit="8" fill="#C1E5F5"/><text font-family="Aptos,Aptos_MSFontService,sans-serif" font-weight="400" font-size="24" transform="translate(914.203 241)">read remaining</text><text font-family="Aptos,Aptos_MSFontService,sans-serif" font-style="italic" font-weight="400" font-size="24" transform="translate(905.71 270)">BSON_length</text><text font-family="Aptos,Aptos_MSFontService,sans-serif" font-weight="400" font-size="24" transform="translate(1048.54 270)">–</text><text font-family="Aptos,Aptos_MSFontService,sans-serif" font-weight="400" font-size="24" transform="translate(1064.38 270)">4</text><text font-family="Aptos,Aptos_MSFontService,sans-serif" font-weight="400" font-size="24" transform="translate(963.39 299)">bytes</text><rect x="813" y="394" width="121" height="72" stroke="#042433" stroke-width="2" stroke-miterlimit="8" fill="none"/><text font-family="Aptos,Aptos_MSFontService,sans-serif" font-weight="400" font-size="24" transform="translate(825.367 423)">calculate</text><text font-family="Aptos,Aptos_MSFontService,sans-serif" font-weight="400" font-size="24" transform="translate(819.707 452)">checksum</text><rect x="1017" y="394" width="213" height="72" stroke="#042433" stroke-width="2" stroke-miterlimit="8" fill="#C1E5F5"/><text font-family="Aptos,Aptos_MSFontService,sans-serif" font-weight="400" font-size="24" transform="translate(1043.9 423)">read checksum</text><text font-family="Aptos,Aptos_MSFontService,sans-serif" font-weight="400" font-size="24" transform="translate(1025.17 452)">(4 additional bytes)</text><path d="M1096 589 1184.72 589 1184.72 612.027 1182.72 612.027 1182.72 590 1183.72 591 1096 591ZM1190.39 610.694 1183.72 618.694 1177.06 610.694Z"/><path d="M0-1 44.7175-1 44.7175 132.201 43.7175 131.201 80.7682 131.201 80.7682 133.201 42.7175 133.201 42.7175 0 43.7175 1 0 1ZM79.4349 125.534 87.4349 132.201 79.4349 138.868Z" transform="matrix(1.83697e-16 1 1 -1.83697e-16 991 307)"/><path d="M992.75 307 992.75 351.717 874 351.717 875 350.717 875 387.768 873 387.768 873 349.717 991.75 349.717 990.75 350.717 990.75 307ZM880.667 386.435 874 394.435 867.333 386.435Z"/><path d="M727 174 992.345 174 992.345 211.172 990.345 211.172 990.345 175 991.345 176 727 176ZM998.011 209.839 991.345 217.839 984.678 209.839Z"/><path d="M0-1 39.1284-1 39.1284 78.2486 38.1284 77.2486 69.5901 77.2486 69.5901 79.2486 37.1284 79.2486 37.1284 0 38.1284 1 0 1ZM68.2568 71.5819 76.2568 78.2486 68.2568 84.9153Z" transform="matrix(1.83697e-16 1 1 -1.83697e-16 874 466)"/><path d="M1124.7 466 1124.7 505.128 952 505.128 953 504.128 953 535.59 951 535.59 951 503.128 1123.7 503.128 1122.7 504.128 1122.7 466ZM958.667 534.257 952 542.257 945.333 534.257Z"/><rect x="488" y="547" width="121" height="86" stroke="#042433" stroke-width="2" stroke-miterlimit="8" fill="none"/><text font-family="Aptos,Aptos_MSFontService,sans-serif" font-weight="400" font-size="24" transform="translate(509.094 583)">decode</text><text font-family="Aptos,Aptos_MSFontService,sans-serif" font-weight="400" font-size="24" transform="translate(516.928 612)">BSON</text><path d="M808.701 591 615.667 591 615.667 589 808.701 589ZM617 596.667 609 590 617 583.333Z"/><path d="M7.1628e-07-1 139.906-0.9999 139.906 1.0001-7.1628e-07 1ZM138.572-6.66657 146.572 0.000104987 138.572 6.66677Z" transform="matrix(-1 0 0 1 487.572 590)"/><path d="M41.9618 378 105.038 378C113.301 378 120 389.417 120 403.5 120 417.583 113.301 429 105.038 429L41.9618 429C33.6986 429 27 417.583 27 403.5 27 389.417 33.6986 378 41.9618 378Z" stroke="#042433" stroke-width="2" stroke-miterlimit="8" fill="#FF8181" fill-rule="evenodd"/><text font-family="Aptos,Aptos_MSFontService,sans-serif" font-weight="400" font-size="24" transform="translate(48.4047 411)">error</text><path d="M1151.96 619 1215.04 619C1223.3 619 1230 630.417 1230 644.5 1230 658.583 1223.3 670 1215.04 670L1151.96 670C1143.7 670 1137 658.583 1137 644.5 1137 630.417 1143.7 619 1151.96 619Z" stroke="#042433" stroke-width="2" stroke-miterlimit="8" fill="#FF8181" fill-rule="evenodd"/><text font-family="Aptos,Aptos_MSFontService,sans-serif" font-weight="400" font-size="24" transform="translate(1158.67 652)">error</text><rect x="866" y="67" width="68" height="34" fill="#C1E5F5"/><text font-family="Aptos,Aptos_MSFontService,sans-serif" font-weight="400" font-size="24" transform="translate(936.563 92)">= I2C bus operations</text><text font-family="Aptos,Aptos_MSFontService,sans-serif" font-weight="400" font-size="24" transform="translate(386.258 324)">yes</text><text font-family="Aptos,Aptos_MSFontService,sans-serif" font-weight="400" font-size="24" transform="translate(765.25 579)">yes</text><text font-family="Aptos,Aptos_MSFontService,sans-serif" font-weight="400" font-size="24" transform="translate(112.927 324)">no</text><text font-family="Aptos,Aptos_MSFontService,sans-serif" font-weight="400" font-size="24" transform="translate(1105.3 579)">no</text></g></svg>