<?xml version="1.0" encoding="UTF-8" standalone="no"?>
<svg
   width="1280"
   height="720"
   overflow="hidden"
   version="1.1"
   id="svg124"
   sodipodi:docname="EEPROM_read_flowchart.svg"
   inkscape:version="1.2.2 (b0a8486541, 2022-12-01)"
   xmlns:inkscape="http://www.inkscape.org/namespaces/inkscape"
   xmlns:sodipodi="http://sodipodi.sourceforge.net/DTD/sodipodi-0.dtd"
   xmlns="http://www.w3.org/2000/svg"
   xmlns:svg="http://www.w3.org/2000/svg">
  <defs
     id="defs128" />
  <sodipodi:namedview
     id="namedview126"
     pagecolor="#ffffff"
     bordercolor="#666666"
     borderopacity="1.0"
     inkscape:showpageshadow="2"
     inkscape:pageopacity="0.0"
     inkscape:pagecheckerboard="0"
     inkscape:deskcolor="#d1d1d1"
     showgrid="false"
     inkscape:zoom="0.7236796"
     inkscape:cx="715.78638"
     inkscape:cy="356.51136"
     inkscape:window-width="1854"
     inkscape:window-height="1011"
     inkscape:window-x="0"
     inkscape:window-y="0"
     inkscape:window-maximized="1"
     inkscape:current-layer="g122" />
  <g
     id="g122">
    <rect
       x="0"
       y="0"
       width="1280"
       height="720"
       fill="#FFFFFF"
       id="rect2" />
    <path
       d="M149 336.5 265.5 279 382 336.5 265.5 394Z"
       stroke="#042433"
       stroke-width="2"
       stroke-miterlimit="8"
       fill="none"
       fill-rule="evenodd"
       id="path4" />
    <text
       font-family="Aptos,Aptos_MSFontService,sans-serif"
       font-weight="400"
       font-size="24"
       transform="translate(219.991 330)"
       id="text6">EEPROM</text>
    <text
       font-family="Aptos,Aptos_MSFontService,sans-serif"
       font-weight="400"
       font-size="24"
       transform="translate(220.004 359)"
       id="text8">present?</text>
    <path
       d="M808 590 952 542 1096 590 952 638Z"
       stroke="#042433"
       stroke-width="2"
       stroke-miterlimit="8"
       fill="none"
       fill-rule="evenodd"
       id="path10" />
    <text
       font-family="Aptos,Aptos_MSFontService,sans-serif"
       font-weight="400"
       font-size="24"
       transform="translate(892.122 583)"
       id="text12">checksums</text>
    <text
       font-family="Aptos,Aptos_MSFontService,sans-serif"
       font-weight="400"
       font-size="24"
       transform="translate(912.629 612)"
       id="text14">match?</text>
    <path
       d="M194.624 76 336.376 76C354.946 76 370 95.2518 370 119 370 142.748 354.946 162 336.376 162L194.624 162C176.054 162 161 142.748 161 119 161 95.2518 176.054 76 194.624 76Z"
       stroke="#042433"
       stroke-width="2"
       stroke-miterlimit="8"
       fill="#B4E5A2"
       fill-rule="evenodd"
       id="path16" />
    <text
       font-family="Aptos,Aptos_MSFontService,sans-serif"
       font-style="italic"
       font-weight="400"
       font-size="24"
       transform="translate(185.821 112)"
       id="text18">coil_connected</text>
    <text
       font-family="Aptos,Aptos_MSFontService,sans-serif"
       font-weight="400"
       font-size="24"
       transform="translate(196.221 141)"
       id="text20">line activated</text>
    <path
       d="M84 648 141.2 533 370 533 312.8 648Z"
       stroke="#042433"
       stroke-width="2"
       stroke-miterlimit="8"
       fill="#FF8181"
       fill-rule="evenodd"
       id="path22" />
    <text
       font-family="Aptos,Aptos_MSFontService,sans-serif"
       font-weight="400"
       font-size="24"
       transform="translate(150.255 569)"
       id="text24">decoded fields</text>
    <text
       font-family="Aptos,Aptos_MSFontService,sans-serif"
       font-weight="400"
       font-size="24"
       transform="translate(167.369 598)"
       id="text26">available to</text>
    <text
       font-family="Aptos,Aptos_MSFontService,sans-serif"
       font-weight="400"
       font-size="24"
       transform="translate(142.689 627)"
       id="text28">scan control SW</text>
    <rect
       x="173"
       y="197"
       width="185"
       height="50"
       stroke="#042433"
       stroke-width="2"
       stroke-miterlimit="8"
       fill="#C1E5F5"
       id="rect30" />
    <text
       font-family="Aptos,Aptos_MSFontService,sans-serif"
       font-weight="400"
       font-size="24"
       transform="translate(198.581 229)"
       id="text32">scan I2C bus</text>
    <path
       d="M267 162 267 190.096 265 190.096 265 162ZM272.667 188.763 266 196.763 259.333 188.763Z"
       id="path34" />
    <path
       d="M267 247 267 272.453 265 272.453 265 247ZM272.667 271.12 266 279.12 259.333 271.12Z"
       id="path36" />
    <path
       d="M0-1 76.7908-1 76.7908 35.212 74.7908 35.212 74.7908 0 75.7908 1 0 1ZM82.4574 33.8786 75.7908 41.8786 69.1241 33.8786Z"
       transform="matrix(-1 1.22465e-16 1.22465e-16 1 148.791 336)"
       id="path38" />
    <rect
       x="606"
       y="132"
       width="121"
       height="86"
       stroke="#042433"
       stroke-width="2"
       stroke-miterlimit="8"
       fill="#C1E5F5"
       id="rect40" />
    <text
       font-family="Aptos,Aptos_MSFontService,sans-serif"
       font-weight="400"
       font-size="24"
       transform="translate(628.154 168)"
       id="text42">read 1</text>
    <text
       font-family="Aptos, Aptos_MSFontService, sans-serif"
       font-weight="400"
       font-size="16px"
       id="text44"
       x="695.89001"
       y="157.82777">st</text>
    <text
       font-family="Aptos,Aptos_MSFontService,sans-serif"
       font-weight="400"
       font-size="24"
       transform="translate(629.874 197)"
       id="text46">4 bytes</text>
    <path
       d="M550 337 596.6 275 783 275 736.4 337Z"
       stroke="#042433"
       stroke-width="2"
       stroke-miterlimit="8"
       fill="none"
       fill-rule="evenodd"
       id="path48" />
    <text
       font-family="Aptos,Aptos_MSFontService,sans-serif"
       font-style="italic"
       font-weight="400"
       font-size="24"
       transform="translate(597.346 314)"
       id="text50">BSON_length</text>
    <path
       d="M0.999972-0.00750642 1.38143 50.808-0.618518 50.823-0.999972 0.00750642ZM7.03792 49.4322 0.431496 57.482-6.29503 49.5323Z"
       transform="matrix(-1 0 0 1 666.432 218)"
       id="path52" />
    <path
       d="M0-1 113.1-1 113.1 161.532 112.1 160.532 217.533 160.532 217.533 162.532 111.1 162.532 111.1 0 112.1 1 0 1ZM216.2 154.866 224.2 161.532 216.2 168.199Z"
       transform="matrix(1 0 0 -1 382 336.532)"
       id="path54" />
    <rect
       x="881"
       y="218"
       width="221"
       height="89"
       stroke="#042433"
       stroke-width="2"
       stroke-miterlimit="8"
       fill="#C1E5F5"
       id="rect56" />
    <text
       font-family="Aptos,Aptos_MSFontService,sans-serif"
       font-weight="400"
       font-size="24"
       transform="translate(914.203 241)"
       id="text58">read remaining</text>
    <text
       font-family="Aptos,Aptos_MSFontService,sans-serif"
       font-style="italic"
       font-weight="400"
       font-size="24"
       transform="translate(905.71 270)"
       id="text60">BSON_length</text>
    <text
       font-family="Aptos,Aptos_MSFontService,sans-serif"
       font-weight="400"
       font-size="24"
       transform="translate(1048.54 270)"
       id="text62">–</text>
    <text
       font-family="Aptos,Aptos_MSFontService,sans-serif"
       font-weight="400"
       font-size="24"
       transform="translate(1064.38 270)"
       id="text64">4</text>
    <text
       font-family="Aptos,Aptos_MSFontService,sans-serif"
       font-weight="400"
       font-size="24"
       transform="translate(963.39 299)"
       id="text66">bytes</text>
    <rect
       x="813"
       y="394"
       width="121"
       height="72"
       stroke="#042433"
       stroke-width="2"
       stroke-miterlimit="8"
       fill="none"
       id="rect68" />
    <text
       font-family="Aptos,Aptos_MSFontService,sans-serif"
       font-weight="400"
       font-size="24"
       transform="translate(825.367 423)"
       id="text70">calculate</text>
    <text
       font-family="Aptos,Aptos_MSFontService,sans-serif"
       font-weight="400"
       font-size="24"
       transform="translate(819.707 452)"
       id="text72">checksum</text>
    <rect
       x="1016.9999"
       y="394"
       width="230.20395"
       height="72"
       stroke="#042433"
       stroke-width="2.0792"
       stroke-miterlimit="8"
       fill="#c1e5f5"
       id="rect74" />
    <text
       font-family="Aptos,Aptos_MSFontService,sans-serif"
       font-weight="400"
       font-size="24"
       transform="translate(1043.9 423)"
       id="text76">read checksum</text>
    <text
       font-family="Aptos,Aptos_MSFontService,sans-serif"
       font-weight="400"
       font-size="24"
       transform="translate(1025.17 452)"
       id="text78">(4 additional bytes)</text>
    <path
       d="M1096 589 1184.72 589 1184.72 612.027 1182.72 612.027 1182.72 590 1183.72 591 1096 591ZM1190.39 610.694 1183.72 618.694 1177.06 610.694Z"
       id="path80" />
    <path
       d="M0-1 44.7175-1 44.7175 132.201 43.7175 131.201 80.7682 131.201 80.7682 133.201 42.7175 133.201 42.7175 0 43.7175 1 0 1ZM79.4349 125.534 87.4349 132.201 79.4349 138.868Z"
       transform="matrix(1.83697e-16 1 1 -1.83697e-16 991 307)"
       id="path82" />
    <path
       d="M992.75 307 992.75 351.717 874 351.717 875 350.717 875 387.768 873 387.768 873 349.717 991.75 349.717 990.75 350.717 990.75 307ZM880.667 386.435 874 394.435 867.333 386.435Z"
       id="path84" />
    <path
       d="M727 174 992.345 174 992.345 211.172 990.345 211.172 990.345 175 991.345 176 727 176ZM998.011 209.839 991.345 217.839 984.678 209.839Z"
       id="path86" />
    <path
       d="M0-1 39.1284-1 39.1284 78.2486 38.1284 77.2486 69.5901 77.2486 69.5901 79.2486 37.1284 79.2486 37.1284 0 38.1284 1 0 1ZM68.2568 71.5819 76.2568 78.2486 68.2568 84.9153Z"
       transform="matrix(1.83697e-16 1 1 -1.83697e-16 874 466)"
       id="path88" />
    <path
       d="M1124.7 466 1124.7 505.128 952 505.128 953 504.128 953 535.59 951 535.59 951 503.128 1123.7 503.128 1122.7 504.128 1122.7 466ZM958.667 534.257 952 542.257 945.333 534.257Z"
       id="path90" />
    <rect
       x="488"
       y="547"
       width="121"
       height="86"
       stroke="#042433"
       stroke-width="2"
       stroke-miterlimit="8"
       fill="none"
       id="rect92" />
    <text
       font-family="Aptos,Aptos_MSFontService,sans-serif"
       font-weight="400"
       font-size="24"
       transform="translate(509.094 583)"
       id="text94">decode</text>
    <text
       font-family="Aptos,Aptos_MSFontService,sans-serif"
       font-weight="400"
       font-size="24"
       transform="translate(516.928 612)"
       id="text96">BSON</text>
    <path
       d="M808.701 591 615.667 591 615.667 589 808.701 589ZM617 596.667 609 590 617 583.333Z"
       id="path98" />
    <path
       d="M7.1628e-07-1 139.906-0.9999 139.906 1.0001-7.1628e-07 1ZM138.572-6.66657 146.572 0.000104987 138.572 6.66677Z"
       transform="matrix(-1 0 0 1 487.572 590)"
       id="path100" />
    <path
       d="M41.9618 378 105.038 378C113.301 378 120 389.417 120 403.5 120 417.583 113.301 429 105.038 429L41.9618 429C33.6986 429 27 417.583 27 403.5 27 389.417 33.6986 378 41.9618 378Z"
       stroke="#042433"
       stroke-width="2"
       stroke-miterlimit="8"
       fill="#FF8181"
       fill-rule="evenodd"
       id="path102" />
    <text
       font-family="Aptos,Aptos_MSFontService,sans-serif"
       font-weight="400"
       font-size="24"
       transform="translate(48.4047 411)"
       id="text104">error</text>
    <path
       d="M1151.96 619 1215.04 619C1223.3 619 1230 630.417 1230 644.5 1230 658.583 1223.3 670 1215.04 670L1151.96 670C1143.7 670 1137 658.583 1137 644.5 1137 630.417 1143.7 619 1151.96 619Z"
       stroke="#042433"
       stroke-width="2"
       stroke-miterlimit="8"
       fill="#FF8181"
       fill-rule="evenodd"
       id="path106" />
    <text
       font-family="Aptos,Aptos_MSFontService,sans-serif"
       font-weight="400"
       font-size="24"
       transform="translate(1158.67 652)"
       id="text108">error</text>
    <rect
       x="866"
       y="67"
       width="68"
       height="34"
       fill="#C1E5F5"
       id="rect110" />
    <text
       font-family="Aptos,Aptos_MSFontService,sans-serif"
       font-weight="400"
       font-size="24"
       transform="translate(936.563 92)"
       id="text112">= I2C bus operations</text>
    <text
       font-family="Aptos,Aptos_MSFontService,sans-serif"
       font-weight="400"
       font-size="24"
       transform="translate(386.258 324)"
       id="text114">yes</text>
    <text
       font-family="Aptos,Aptos_MSFontService,sans-serif"
       font-weight="400"
       font-size="24"
       transform="translate(765.25 579)"
       id="text116">yes</text>
    <text
       font-family="Aptos,Aptos_MSFontService,sans-serif"
       font-weight="400"
       font-size="24"
       transform="translate(112.927 324)"
       id="text118">no</text>
    <text
       font-family="Aptos,Aptos_MSFontService,sans-serif"
       font-weight="400"
       font-size="24"
       transform="translate(1105.3 579)"
       id="text120">no</text>
  </g>
</svg>
